<?plantuml 1.2026.1?><svg xmlns="http://www.w3.org/2000/svg" xmlns:xlink="http://www.w3.org/1999/xlink" contentStyleType="text/css" data-diagram-type="CLASS" height="571.25px" preserveAspectRatio="none" style="width:620px;height:571px;background:#FFFFFF;" version="1.1" viewBox="0 0 620 571" width="620px" zoomAndPan="magnify"><defs/><g><!--class Group--><g class="entity" data-qualified-name="Group" data-source-line="15" id="ent0002"><rect fill="#EAECEE" height="40" rx="3.125" ry="3.125" style="stroke:#181818;stroke-width:1.75;" width="93.6621" x="247.2125" y="8.75"/><ellipse cx="265.9625" cy="28.75" fill="#ADD1B2" rx="13.75" ry="13.75" style="stroke:#181818;stroke-width:1.25;"/><path d="M269.6148,35.2344 Q268.9703,35.5664 268.2672,35.7227 Q267.5641,35.8984 266.7828,35.8984 Q264.0094,35.8984 262.5445,34.082 Q261.0992,32.2461 261.0992,28.8086 Q261.0992,25.3516 262.5445,23.5352 Q264.0094,21.6992 266.7828,21.6992 Q267.5641,21.6992 268.2672,21.875 Q268.9898,22.0313 269.6148,22.3633 L269.6148,25.3711 Q268.9117,24.7266 268.2477,24.4336 Q267.6031,24.1406 266.9,24.1406 Q265.4352,24.1406 264.6734,25.3125 Q263.9117,26.4844 263.9117,28.8086 Q263.9117,31.1133 264.6734,32.2852 Q265.4352,33.457 266.9,33.457 Q267.6031,33.457 268.2477,33.1641 Q268.9117,32.8711 269.6148,32.2266 L269.6148,35.2344 Z " fill="#000000"/><text fill="#000000" font-family="Helvetica" font-size="17.5" lengthAdjust="spacing" textLength="53.6621" x="283.4625" y="34.8083">Group</text></g><!--class Personnage--><g class="entity" data-qualified-name="Personnage" data-source-line="17" id="ent0003"><rect fill="#D4E6F1" height="182.2266" rx="3.125" ry="3.125" style="stroke:#181818;stroke-width:1.75;" width="264.2212" x="161.925" y="123.75"/><ellipse cx="237.163" cy="143.75" fill="#ADD1B2" rx="13.75" ry="13.75" style="stroke:#181818;stroke-width:1.25;"/><path d="M240.8154,150.2344 Q240.1708,150.5664 239.4677,150.7227 Q238.7646,150.8984 237.9833,150.8984 Q235.2099,150.8984 233.7451,149.082 Q232.2998,147.2461 232.2998,143.8086 Q232.2998,140.3516 233.7451,138.5352 Q235.2099,136.6992 237.9833,136.6992 Q238.7646,136.6992 239.4677,136.875 Q240.1904,137.0313 240.8154,137.3633 L240.8154,140.3711 Q240.1123,139.7266 239.4482,139.4336 Q238.8037,139.1406 238.1005,139.1406 Q236.6357,139.1406 235.874,140.3125 Q235.1123,141.4844 235.1123,143.8086 Q235.1123,146.1133 235.874,147.2852 Q236.6357,148.457 238.1005,148.457 Q238.8037,148.457 239.4482,148.1641 Q240.1123,147.8711 240.8154,147.2266 L240.8154,150.2344 Z " fill="#000000"/><text fill="#000000" font-family="Helvetica" font-size="17.5" lengthAdjust="spacing" textLength="103.1201" x="262.788" y="149.8083">Personnage</text><line style="stroke:#181818;stroke-width:1.75;" x1="163.175" x2="424.8962" y1="163.75" y2="163.75"/><text fill="#000000" font-family="Helvetica" font-size="17.5" lengthAdjust="spacing" textLength="149.5276" x="169.425" y="184.9939">#String direction</text><line style="stroke:#181818;stroke-width:1.75;" x1="163.175" x2="424.8962" y1="194.1211" y2="194.1211"/><text fill="#000000" font-family="Helvetica" font-size="17.5" lengthAdjust="spacing" textLength="172.2485" x="169.425" y="215.365">+directionGauche()</text><text fill="#000000" font-family="Helvetica" font-size="17.5" lengthAdjust="spacing" textLength="249.2212" x="169.425" y="235.7361">+directionDroite(largeurJeu)</text><text fill="#000000" font-family="Helvetica" font-size="17.5" lengthAdjust="spacing" textLength="233.0798" x="169.425" y="256.1072">+directionBas(hauteurJeu)</text><text fill="#000000" font-family="Helvetica" font-size="17.5" lengthAdjust="spacing" textLength="147.229" x="169.425" y="276.4783">+directionHaut()</text><text fill="#000000" font-family="Helvetica" font-size="17.5" lengthAdjust="spacing" textLength="232.6355" x="169.425" y="296.8494">+collision(autre) : boolean</text></g><!--class Pacman--><g class="entity" data-qualified-name="Pacman" data-source-line="26" id="ent0004"><rect fill="#D4E6F1" height="141.4844" rx="3.125" ry="3.125" style="stroke:#181818;stroke-width:1.75;" width="248.0798" x="8.75" y="401.35"/><ellipse cx="92.597" cy="421.35" fill="#ADD1B2" rx="13.75" ry="13.75" style="stroke:#181818;stroke-width:1.25;"/><path d="M96.2494,427.8344 Q95.6049,428.1664 94.9017,428.3227 Q94.1986,428.4984 93.4174,428.4984 Q90.6439,428.4984 89.1791,426.682 Q87.7338,424.8461 87.7338,421.4086 Q87.7338,417.9516 89.1791,416.1352 Q90.6439,414.2992 93.4174,414.2992 Q94.1986,414.2992 94.9017,414.475 Q95.6244,414.6312 96.2494,414.9633 L96.2494,417.9711 Q95.5463,417.3266 94.8822,417.0336 Q94.2377,416.7406 93.5345,416.7406 Q92.0697,416.7406 91.308,417.9125 Q90.5463,419.0844 90.5463,421.4086 Q90.5463,423.7133 91.308,424.8852 Q92.0697,426.057 93.5345,426.057 Q94.2377,426.057 94.8822,425.7641 Q95.5463,425.4711 96.2494,424.8266 L96.2494,427.8344 Z " fill="#000000"/><text fill="#000000" font-family="Helvetica" font-size="17.5" lengthAdjust="spacing" textLength="69.7607" x="118.222" y="427.4083">Pacman</text><line style="stroke:#181818;stroke-width:1.75;" x1="10" x2="255.5798" y1="441.35" y2="441.35"/><text fill="#000000" font-family="Helvetica" font-size="17.5" lengthAdjust="spacing" textLength="109.1528" x="16.25" y="462.5939">-Circle corps</text><text fill="#000000" font-family="Helvetica" font-size="17.5" lengthAdjust="spacing" textLength="112.7332" x="16.25" y="482.965">-Line bouche</text><line style="stroke:#181818;stroke-width:1.75;" x1="10" x2="255.5798" y1="492.0922" y2="492.0922"/><text fill="#000000" font-family="Helvetica" font-size="17.5" lengthAdjust="spacing" textLength="233.0798" x="16.25" y="513.3361">+directionBas(hauteurJeu)</text><text fill="#000000" font-family="Helvetica" font-size="17.5" lengthAdjust="spacing" textLength="147.229" x="16.25" y="533.7072">+directionHaut()</text></g><!--class Fantome--><g class="entity" data-qualified-name="Fantome" data-source-line="33" id="ent0005"><rect fill="#D4E6F1" height="182.2266" rx="3.125" ry="3.125" style="stroke:#181818;stroke-width:1.75;" width="311.3379" x="300.875" y="380.975"/><ellipse cx="412.5999" cy="400.975" fill="#ADD1B2" rx="13.75" ry="13.75" style="stroke:#181818;stroke-width:1.25;"/><path d="M416.2522,407.4594 Q415.6077,407.7914 414.9045,407.9477 Q414.2014,408.1234 413.4202,408.1234 Q410.6467,408.1234 409.1819,406.307 Q407.7366,404.4711 407.7366,401.0336 Q407.7366,397.5766 409.1819,395.7602 Q410.6467,393.9242 413.4202,393.9242 Q414.2014,393.9242 414.9045,394.1 Q415.6272,394.2563 416.2522,394.5883 L416.2522,397.5961 Q415.5491,396.9516 414.885,396.6586 Q414.2405,396.3656 413.5374,396.3656 Q412.0725,396.3656 411.3108,397.5375 Q410.5491,398.7094 410.5491,401.0336 Q410.5491,403.3383 411.3108,404.5102 Q412.0725,405.682 413.5374,405.682 Q414.2405,405.682 414.885,405.3891 Q415.5491,405.0961 416.2522,404.4516 L416.2522,407.4594 Z " fill="#000000"/><text fill="#000000" font-family="Helvetica" font-size="17.5" lengthAdjust="spacing" textLength="77.2632" x="438.2249" y="407.0333">Fantome</text><line style="stroke:#181818;stroke-width:1.75;" x1="302.125" x2="610.9629" y1="420.975" y2="420.975"/><text fill="#000000" font-family="Helvetica" font-size="17.5" lengthAdjust="spacing" textLength="244.8804" x="308.375" y="442.2189">-Circle oeilGauche, oeilDroit</text><text fill="#000000" font-family="Helvetica" font-size="17.5" lengthAdjust="spacing" textLength="296.3379" x="308.375" y="462.59">-Circle retineGauche, retineDroite</text><line style="stroke:#181818;stroke-width:1.75;" x1="302.125" x2="610.9629" y1="471.7172" y2="471.7172"/><text fill="#000000" font-family="Helvetica" font-size="17.5" lengthAdjust="spacing" textLength="172.2485" x="308.375" y="492.9611">+directionGauche()</text><text fill="#000000" font-family="Helvetica" font-size="17.5" lengthAdjust="spacing" textLength="249.2212" x="308.375" y="513.3322">+directionDroite(largeurJeu)</text><text fill="#000000" font-family="Helvetica" font-size="17.5" lengthAdjust="spacing" textLength="233.0798" x="308.375" y="533.7033">+directionBas(hauteurJeu)</text><text fill="#000000" font-family="Helvetica" font-size="17.5" lengthAdjust="spacing" textLength="147.229" x="308.375" y="554.0744">+directionHaut()</text></g><!--reverse link Group to Personnage--><g class="link" data-entity-1="ent0002" data-entity-2="ent0003" data-link-type="extension" data-source-line="42" id="lnk6"><path codeLine="42" d="M294.0375,71.8 C294.0375,89.75 294.0375,95.3625 294.0375,123.3" fill="none" id="Group-backto-Personnage" style="stroke:#34495E;stroke-width:1.25;"/><polygon fill="none" points="294.0375,49.3,286.5375,71.8,301.5375,71.8,294.0375,49.3" style="stroke:#34495E;stroke-width:1.25;"/></g><!--reverse link Personnage to Pacman--><g class="link" data-entity-1="ent0003" data-entity-2="ent0004" data-link-type="extension" data-source-line="43" id="lnk7"><path codeLine="43" d="M224.9284,325.2863 C205.2659,356.3488 195.6,371.625 177.1125,400.825" fill="none" id="Personnage-backto-Pacman" style="stroke:#34495E;stroke-width:1.25;"/><polygon fill="none" points="236.9625,306.275,218.5913,321.2749,231.2655,329.2977,236.9625,306.275" style="stroke:#34495E;stroke-width:1.25;"/></g><!--reverse link Personnage to Fantome--><g class="link" data-entity-1="ent0003" data-entity-2="ent0005" data-link-type="extension" data-source-line="44" id="lnk8"><path codeLine="44" d="M363.6607,325.2456 C378.9982,349.2956 383.475,356.3 398.825,380.3625" fill="none" id="Personnage-backto-Fantome" style="stroke:#34495E;stroke-width:1.25;"/><polygon fill="none" points="351.5625,306.275,357.3372,329.2783,369.9842,321.2129,351.5625,306.275" style="stroke:#34495E;stroke-width:1.25;"/></g><?plantuml-src lLB9Rjim4BthAmRm8JOQsN7h55qFtjDqGG0NHQzZQYmHfZZka4ow_difoNQLrZtqqXlvPdlpvft1J6CkM9O46O4ow1mvo0AisGO7Jw1xWofzYxO7p-26nB6rc1EGXpgHmkVa31m7bnwAOq695WQmGEkvf7Fu53GK9DgJzLNlfN3OmJNUuk9ZFvQlFYn1A2TBGh13WNwkVH7MWwgXTmCXcv6aMKFLzLq1tTV2Mms65PfUrMDYAC3BumQagd6H85e7XlRhF8TSj3kcxId0XeDOJVsaq544AdV-2vHKhkEwYTjg6obX2Qx0ZE-qpM63nb4hakqq31zUj17QO31-mTQlz5U2uUNfu3kCmb-HkIMl5RPoQe9ZxqMlWwTNYctTv-AlARz6ZNxFcR14-TuNMcqjEGV3VZjbBC9tKpOiq7aq6Zszf2Ifo_Pdwip7y-byVW1R7kZCHlF7Yo5yIm0wgyWZIfDf8UKrsuWzE7wM65H1tTuzS2OSJzGrA3a5kQPmFpn1roqmRdOYTXNnffjYOxIBK3T2GfLBryo6q2O_ZfGRGxRffbCjAjf2iUnSzN-ZRMMIYkQ_iZZEsVlzv20cRHeLpkjtlNmhBj40bWuPpQyHw7y86LTeZltYUvgsJfoqhjs4QYd_WFUR_mG0?></g></svg>